<?xml version="1.0" encoding="utf-8"?>
<!-- Generator: Adobe Illustrator 27.1.0, SVG Export Plug-In . SVG Version: 6.00 Build 0)  -->
<svg version="1.1" id="Layer_1" xmlns="http://www.w3.org/2000/svg" xmlns:xlink="http://www.w3.org/1999/xlink" x="0px" y="0px"
	 viewBox="0 0 380.2 501.7" style="enable-background:new 0 0 380.2 501.7;" xml:space="preserve">
<style type="text/css">
	.st0{fill-rule:evenodd;clip-rule:evenodd;fill:#353332;}
</style>
<g>
	<path class="st0" d="M380.1,445.7l-18.7-280h0c-1.8-27.6-24.8-49-52.4-49h-19.8V99.2c0-54.8-44.4-99.2-99.2-99.2
		c-54.8,0-99.2,44.4-99.2,99.2v17.5H71.2c-27.6,0-50.5,21.4-52.4,49l-18.7,280c-1,14.5,4.1,28.7,14,39.4
		c9.9,10.6,23.8,16.6,38.3,16.6h275.2c14.5,0,28.4-6,38.3-16.6C375.9,474.4,381,460.2,380.1,445.7z M125.9,99.2
		c0-35.4,28.7-64.2,64.2-64.2c35.4,0,64.2,28.7,64.2,64.2v17.5H125.9V99.2z M340.4,461.1c-3.3,3.5-7.9,5.6-12.8,5.6H52.5
		c-4.8,0-9.5-2-12.8-5.6c-3.3-3.5-5-8.3-4.7-13.1l18.7-280c0.6-9.2,8.2-16.3,17.5-16.3H309c9.2,0,16.8,7.1,17.5,16.3h0l18.7,280
		C345.5,452.8,343.8,457.6,340.4,461.1z"/>
	<path class="st0" d="M271.4,211.7c-8.7-4.2-19.2-0.4-23.3,8.3h0c-10.3,21.7-32.4,36.7-58,36.7c-25.6,0-47.7-15-58-36.7
		c-4.1-8.7-14.6-12.4-23.3-8.3c-8.7,4.1-12.4,14.6-8.3,23.3c15.9,33.5,50.1,56.7,89.6,56.7c39.6,0,73.7-23.1,89.6-56.7
		C283.8,226.3,280.1,215.8,271.4,211.7z"/>
</g>
</svg>
